<?xml version="1.0" encoding="UTF-8"?>
<svg id="Camada_1" data-name="Camada 1" xmlns="http://www.w3.org/2000/svg" viewBox="0 0 1080 1080">
  <defs>
    <style>
      .cls-1 {
        fill: #20b7d9;
        stroke-width: 0px;
      }
    </style>
  </defs>
  <g>
    <path class="cls-1" d="M252.55,721.37c-.29.29-.7.44-1.21.44h-50.89c-.51,0-.92-.15-1.21-.44-.29-.29-.44-.69-.44-1.21v-73.97c0-1.06.55-1.59,1.65-1.59h50.12c1.1,0,1.65.53,1.65,1.59v2.97c0,.51-.15.92-.44,1.21-.29.29-.7.44-1.21.44h-45.29v28.14h36.93c1.06,0,1.59.55,1.59,1.65v2.91c0,.88-.71,1.59-1.59,1.59h-36.93v30.45h46.05c.51,0,.92.15,1.21.44.29.29.44.7.44,1.21v2.97c0,.51-.15.92-.44,1.21Z"/>
    <path class="cls-1" d="M312.78,656.41h2.97c.88,0,1.59.71,1.59,1.59v62.16c0,1.1-.53,1.65-1.59,1.65h-2.64c-.48,0-.86-.15-1.15-.44-.29-.29-.44-.68-.44-1.15l-.11-10.5c-1.32,2.35-3.23,4.53-5.74,6.57-2.51,2.03-5.38,3.67-8.6,4.92-3.22,1.24-6.49,1.87-9.78,1.87-5.09,0-9.61-1.09-13.55-3.27-3.94-2.18-7-5.31-9.18-9.4-2.18-4.08-3.27-8.88-3.27-14.37v-38.03c0-.88.71-1.59,1.59-1.59h3.08c1.1,0,1.65.53,1.65,1.59v37.48c0,4.43.85,8.26,2.56,11.49,1.7,3.22,4.1,5.7,7.2,7.42,3.1,1.72,6.66,2.58,10.69,2.58,3.81,0,7.5-.95,11.07-2.86,3.57-1.9,6.47-4.52,8.68-7.86,2.22-3.33,3.32-7.02,3.32-11.05v-37.21c0-1.06.55-1.59,1.65-1.59Z"/>
    <g>
      <path class="cls-1" d="M338.32,721.49h-10.57c-1.22,0-2.1-.98-1.95-2.19l8.59-72.34c.14-1.21,1.25-2.18,2.47-2.18h27.94c5.46.01,10.11,1.09,13.95,3.24,3.84,2.15,6.65,5.13,8.42,8.96,1.78,3.82,2.38,8.17,1.8,13.05-.61,5.17-2.23,9.72-4.86,13.65-2.62,3.93-6.1,6.97-10.43,9.11-4.33,2.15-9.28,3.22-14.85,3.22h-15.27s-2.77,23.31-2.77,23.31c-.14,1.21-1.25,2.18-2.47,2.18ZM366.31,680.96c2.11-1.04,3.84-2.49,5.17-4.37,1.33-1.87,2.14-4.03,2.43-6.47s-.02-4.45-.92-6.25c-.89-1.8-2.28-3.2-4.15-4.18-1.87-.98-4.08-1.48-6.63-1.48h-14.16s-2.89,24.29-2.89,24.29h14.11c2.58,0,4.93-.51,7.04-1.55Z"/>
      <path class="cls-1" d="M400.65,718.54c-4.93-3.04-8.64-7.17-11.11-12.4-2.48-5.22-3.35-10.93-2.61-17.12.74-6.26,2.98-12.01,6.72-17.25,3.74-5.24,8.45-9.39,14.12-12.44,5.67-3.06,11.63-4.58,17.86-4.58s11.88,1.53,16.83,4.59c4.95,3.06,8.67,7.21,11.16,12.45,2.49,5.24,3.37,10.99,2.62,17.25-.82,6.91-3.53,13.22-8.12,18.93-3.11,3.87-6.94,7.18-11.22,9.69-6.16,3.62-12.66,5.43-19.5,5.43-6.23,0-11.81-1.52-16.75-4.57ZM429.66,706.95c3.35-1.82,6.13-4.3,8.35-7.45,2.22-3.15,3.56-6.65,4.01-10.51s-.05-7.38-1.51-10.57c-1.47-3.19-3.66-5.69-6.58-7.51-2.92-1.82-6.2-2.73-9.85-2.73-3.69,0-7.21.91-10.56,2.73-3.35,1.82-6.14,4.32-8.36,7.5-2.22,3.18-3.56,6.71-4.02,10.56-.46,3.86.05,7.36,1.52,10.51,1.47,3.15,3.66,5.64,6.58,7.46,2.92,1.82,6.22,2.73,9.91,2.73,3.65,0,7.15-.91,10.5-2.73Z"/>
      <path class="cls-1" d="M516.17,655.88h9.79c1.22,0,2.1.98,1.95,2.19l-7.28,61.31c-.14,1.21-1.25,2.18-2.47,2.18h-7.74c-1.29,0-2.01-.64-2.15-1.91l-.58-6.28c-2.79,2.69-6.26,4.92-10.39,6.68-4.14,1.76-8.16,2.64-12.07,2.64-5.35,0-9.91-1.18-13.69-3.53-3.78-2.35-6.52-5.68-8.22-9.99-1.7-4.31-2.21-9.33-1.53-15.04l4.29-36.09c.14-1.21,1.25-2.18,2.47-2.18h9.9c1.22,0,2.1.98,1.95,2.19l-4.11,34.62c-.41,3.42-.12,6.41.87,8.95.99,2.55,2.58,4.52,4.77,5.93,2.19,1.4,4.86,2.1,7.99,2.11s6.25-.74,9.12-2.23c3.26-1.69,5.88-4.07,7.88-7.12,1.48-2.27,2.34-4.84,2.65-7.41l4.14-34.83c.14-1.21,1.25-2.18,2.47-2.18Z"/>
      <path class="cls-1" d="M590.16,659.34c4.69,3.02,8.19,7.14,10.48,12.34,2.29,5.21,3.07,10.92,2.33,17.15-.74,6.26-2.88,11.99-6.41,17.2-3.53,5.2-8,9.33-13.39,12.36-5.4,3.04-11.17,4.56-17.33,4.55-4.02,0-7.55-.75-10.58-2.24-3.03-1.49-5.53-3.57-7.5-6.23l-2.89,24.3c-.14,1.21-1.25,2.18-2.47,2.18h-9.79c-1.22,0-2.1-.98-1.95-2.19l9.59-80.69c.14-1.21,1.25-2.18,2.47-2.18h7.69c1.33,0,2.06.64,2.21,1.91l.14,6.28c2.7-2.87,5.82-5.14,9.35-6.79,3.53-1.65,7.48-2.48,11.83-2.48,6.12,0,11.53,1.52,16.22,4.54ZM577.44,706.87c3.12-1.76,5.67-4.19,7.64-7.29,1.97-3.09,3.19-6.61,3.66-10.54s.07-7.48-1.2-10.65c-1.27-3.17-3.25-5.65-5.95-7.46-2.7-1.8-5.89-2.7-9.58-2.71-3.73,0-7.19.91-10.39,2.73-3.2,1.82-5.83,4.31-7.89,7.48-2.05,3.17-3.31,6.7-3.78,10.59s-.03,7.4,1.3,10.51c1.33,3.11,3.39,5.55,6.18,7.32,2.8,1.77,6.06,2.65,9.78,2.65,3.69,0,7.09-.88,10.22-2.64Z"/>
      <path class="cls-1" d="M666.8,655.93h7.74c1.22,0,2.1.98,1.95,2.19l-7.28,61.31c-.14,1.21-1.25,2.18-2.47,2.18h-7.91c-1.29,0-2.01-.64-2.15-1.91l-.06-6.01c-2.7,2.87-5.83,5.14-9.38,6.79-3.55,1.66-7.47,2.48-11.75,2.48-6.16,0-11.57-1.52-16.25-4.56-4.67-3.04-8.16-7.16-10.45-12.37-2.3-5.21-3.07-10.94-2.33-17.2.74-6.22,2.87-11.94,6.41-17.14,3.53-5.2,8-9.32,13.41-12.34,5.41-3.02,11.18-4.53,17.3-4.53,4.35,0,8.11.82,11.27,2.46,3.16,1.64,5.75,3.92,7.76,6.83l1.58-6.28c.45-1.27,1.31-1.91,2.61-1.91ZM647.72,706.89c3.22-1.76,5.87-4.2,7.95-7.31,2.08-3.11,3.36-6.61,3.82-10.51s.03-7.43-1.29-10.59c-1.32-3.17-3.37-5.66-6.14-7.48-2.77-1.82-6.02-2.73-9.74-2.73s-7.1.9-10.22,2.7c-3.13,1.8-5.7,4.28-7.72,7.45-2.02,3.17-3.26,6.71-3.73,10.65s-.08,7.44,1.15,10.54c1.24,3.09,3.21,5.52,5.91,7.29,2.7,1.77,5.9,2.65,9.59,2.65s7.19-.88,10.41-2.64Z"/>
      <path class="cls-1" d="M741.22,636.25h9.96c1.22,0,2.1.98,1.95,2.19l-9.63,81.02c-.14,1.21-1.25,2.18-2.47,2.18h-7.91c-1.29,0-2.01-.64-2.15-1.91l-.06-6.01c-2.7,2.87-5.83,5.14-9.38,6.79-3.55,1.66-7.47,2.48-11.75,2.48-6.16,0-11.57-1.52-16.25-4.56-4.67-3.04-8.16-7.16-10.45-12.37-2.3-5.21-3.07-10.94-2.33-17.2.74-6.22,2.87-11.94,6.41-17.14,3.53-5.2,8-9.32,13.41-12.34,5.41-3.02,11.18-4.53,17.3-4.53,4.02,0,7.53.72,10.53,2.16,3,1.44,5.47,3.43,7.42,5.98l2.92-24.57c.14-1.21,1.25-2.18,2.47-2.18ZM722.01,706.92c3.22-1.76,5.87-4.2,7.95-7.31,2.08-3.11,3.36-6.61,3.82-10.51.46-3.89.03-7.43-1.29-10.59-1.32-3.17-3.37-5.66-6.14-7.48-2.77-1.82-6.02-2.73-9.74-2.73-3.69,0-7.1.9-10.22,2.7-3.13,1.8-5.7,4.28-7.72,7.45-2.02,3.17-3.26,6.71-3.73,10.65-.47,3.93-.08,7.44,1.15,10.54,1.24,3.09,3.21,5.52,5.91,7.29,2.7,1.77,5.9,2.65,9.59,2.65,3.72,0,7.19-.88,10.41-2.64Z"/>
      <path class="cls-1" d="M768.74,718.67c-4.93-3.04-8.64-7.17-11.11-12.4-2.48-5.22-3.35-10.93-2.61-17.12.74-6.26,2.98-12.01,6.72-17.25,3.74-5.24,8.45-9.39,14.12-12.44s11.63-4.58,17.86-4.58,11.88,1.53,16.83,4.59c4.95,3.06,8.67,7.21,11.16,12.45,2.49,5.24,3.37,10.99,2.62,17.25-.82,6.91-3.53,13.22-8.12,18.93-3.11,3.87-6.94,7.18-11.22,9.69-6.16,3.62-12.66,5.43-19.5,5.43-6.23,0-11.81-1.52-16.75-4.57ZM797.75,707.08c3.35-1.82,6.13-4.3,8.35-7.45,2.22-3.15,3.56-6.65,4.01-10.51.46-3.86-.05-7.38-1.51-10.57-1.47-3.19-3.66-5.69-6.58-7.51-2.92-1.82-6.2-2.73-9.85-2.73-3.69,0-7.21.91-10.56,2.73-3.35,1.82-6.14,4.32-8.36,7.5-2.22,3.18-3.56,6.71-4.02,10.56-.46,3.86.05,7.36,1.52,10.51,1.47,3.15,3.66,5.64,6.58,7.46,2.92,1.82,6.22,2.73,9.91,2.73,3.65,0,7.15-.91,10.5-2.73Z"/>
      <path class="cls-1" d="M880.19,658.57c.75.47,1.09,1.09,1,1.86-.04.36-.2.75-.47,1.15l-5.26,7.97c-.54.8-1.16,1.2-1.86,1.2-.44,0-.85-.13-1.23-.38-2.77-1.57-5.49-2.35-8.19-2.35-2.62,0-5.18.76-7.69,2.29-2.51,1.53-4.65,3.76-6.44,6.69-1.79,2.93-2.92,6.38-3.39,10.35l-3.82,32.16c-.14,1.21-1.25,2.18-2.47,2.18h-9.79c-1.22,0-2.1-.98-1.95-2.19l7.28-61.31c.14-1.21,1.25-2.18,2.47-2.18h7.69c1.33,0,2.06.64,2.21,1.91l.62,5.95c2.08-2,4-3.63,5.75-4.88s3.7-2.25,5.83-2.97c2.13-.73,4.53-1.09,7.18-1.09,4.2,0,8.37,1.22,12.51,3.66Z"/>
    </g>
  </g>
  <g>
    <path class="cls-1" d="M581.35,395.19c5.79,4.97,13.16,7.71,20.76,7.71.82,0,1.65-.03,2.46-.09,17.55-1.33,30.75-16.69,29.42-34.24-.64-8.5-4.56-16.25-11.03-21.8-6.47-5.56-14.72-8.27-23.21-7.62-8.5.64-16.25,4.56-21.8,11.03-5.56,6.47-8.26,14.71-7.62,23.21.64,8.5,4.56,16.25,11.03,21.8ZM602.18,347.35c12.27,0,22.61,9.59,23.54,21.84.98,12.99-8.78,24.36-21.77,25.34-6.29.47-12.4-1.53-17.18-5.64-4.79-4.11-7.68-9.84-8.16-16.13-.98-12.99,8.78-24.35,21.77-25.34.59-.04,1.2-.07,1.8-.07Z"/>
    <path class="cls-1" d="M593.86,382.44l-1.62,4.62,8.75,3.08,1.65-4.68c5.27.57,9.1-1.54,10.61-5.84,1.98-5.63-3.18-9.12-6.95-11.67-1.88-1.27-4.02-2.72-3.73-3.54.25-.7,1.28-.74,3.08-.11,2.31.81,4.45,2.92,5.58,4.48l.57.78,6.57-4.39-.59-.84c-1.07-1.51-3.26-3.67-5.89-5.32l1.49-4.23-8.71-3.06-1.5,4.28c-5.05-.52-8.72,1.46-10.14,5.5-2.02,5.74,3.18,9.34,6.98,11.96,1.75,1.21,3.93,2.72,3.66,3.5-.15.43-.38.66-.75.77-.42.13-1.25.16-2.78-.38-3.44-1.21-6.04-4.57-6.99-5.96l-.57-.83-6.52,4.57.61.83c1.81,2.45,4.41,4.78,7.22,6.49Z"/>
    <path class="cls-1" d="M582.46,405.6c-1.24-.44-2.58-.36-3.77.2-1.19.57-2.09,1.57-2.52,2.82l-7.46,21.24c-.44,1.24-.36,2.58.21,3.77.57,1.19,1.57,2.09,2.81,2.52.53.19,1.08.28,1.64.28,2.09,0,3.97-1.33,4.66-3.3l7.46-21.24c.44-1.24.36-2.58-.21-3.77-.57-1.19-1.57-2.09-2.81-2.52Z"/>
    <path class="cls-1" d="M583.39,426.84l-4.33,12.33c-.44,1.24-.36,2.58.21,3.77.57,1.19,1.57,2.08,2.81,2.52.53.19,1.08.28,1.64.28,2.09,0,3.97-1.33,4.66-3.3l4.33-12.33c.44-1.24.36-2.58-.21-3.77-.57-1.19-1.57-2.08-2.81-2.52-1.24-.44-2.58-.37-3.77.2-1.19.57-2.09,1.57-2.53,2.82Z"/>
    <path class="cls-1" d="M539.52,462.06c-.77,1.07-1.07,2.38-.85,3.68.45,2.69,3,4.51,5.68,4.06,28.36-4.72,52.8-4.38,72.65,1.01.42.12.86.17,1.3.17,2.22,0,4.18-1.5,4.76-3.65.71-2.63-.84-5.34-3.47-6.06-21.22-5.76-47.08-6.17-76.85-1.22-1.3.22-2.44.93-3.21,2Z"/>
    <path class="cls-1" d="M674.41,482.65c-10.04-21.43-29-36.46-54.83-43.47-1.27-.35-2.6-.17-3.75.48-1.14.66-1.96,1.72-2.31,2.99-.35,1.27-.18,2.6.48,3.75s1.72,1.97,2.99,2.31c22.94,6.23,39.7,19.41,48.47,38.13,9.68,20.66,9.16,47.79-1.37,70.8-3.39,7.41-6.27,10.75-13.23,18.81l-.09.11c-1.84,2.13-3.95,4.57-6.39,7.47-8.78,10.41-14.14,18.52-15.95,24.14h-12.48c-.14-3.13-.5-7.37-1.42-11.39-.29-1.29-1.07-2.38-2.19-3.08-1.12-.7-2.44-.92-3.72-.63-1.29.29-2.38,1.07-3.08,2.19-.7,1.12-.92,2.44-.63,3.73,1.43,6.26,1.25,13.66,1.24,13.97-.04,1.33.46,2.64,1.39,3.6.93.96,2.22,1.5,3.55,1.5h21.71c1.5,0,2.9-.66,3.84-1.82.94-1.16,1.31-2.66,1.01-4.05-.15-1.08,2.15-7.4,14.29-21.78,2.46-2.91,4.57-5.36,6.42-7.5,7.39-8.55,10.76-12.46,14.73-21.15,11.7-25.58,12.21-55.89,1.33-79.1Z"/>
    <path class="cls-1" d="M611.58,584.5c.45-1.24.38-2.58-.18-3.77-.56-1.19-1.55-2.1-2.79-2.55-1.24-.45-2.58-.38-3.77.18-42.78,20.09-78.8,8.32-92.3,2.32-2.49-1.1-5.41.02-6.52,2.51-.54,1.21-.57,2.55-.09,3.78.47,1.23,1.4,2.2,2.6,2.74,8.22,3.65,25.29,9.77,47.31,9.77,18.1,0,36-4.1,53.2-12.18,1.19-.56,2.1-1.55,2.55-2.79Z"/>
    <path class="cls-1" d="M508.51,593.55h0c-2.39-1.31-5.39-.43-6.7,1.95-2.51,4.57-3.54,9.27-3.96,12.67h-12.78c-4.74-17.26-33.83-60.13-52.11-69.73-6.05-3.18-18.1-5.33-25.31-6.39v-24.7c8.06-.61,25.32-3.25,32.37-14.61,7.15-11.53,24.12-26.06,37.06-28.48,2.23-.42,3.89-2.3,4.02-4.57.33-5.65.9-24.14-4.84-34.5,3.1.1,8.51.63,14.78,2.81,8.06,2.81,18.9,8.84,24.75,21.72.05.12.11.23.17.32l.08.13c.06.09.11.18.18.28l.09.12c.06.08.12.15.2.25l.09.11c.07.08.15.16.22.23.05.05.1.09.14.13.09.08.18.16.27.23l.15.1c.07.05.15.1.23.16l.14.08c.08.05.17.1.28.15l.11.05c.1.05.2.09.3.13l.1.04c.13.05.26.09.42.13.3.08.61.13.92.16h.1c.09,0,.17.01.33.01.13,0,.27-.01.41-.02h.12c.18-.03.36-.06.47-.09l.1-.02c7.85-1.9,15.56-3.48,22.93-4.71,2.68-.45,4.51-3,4.06-5.68-.22-1.3-.93-2.44-2-3.21-1.07-.77-2.38-1.07-3.68-.85-6.39,1.06-13.05,2.39-19.82,3.95-12.88-23.03-40.39-27.75-51.81-26.39-1.92.23-7.77.92-8.7,5.76-.19,1-.5,4.45,3.74,6.77,3.28,1.79,5.55,13.77,5.25,27.46-15.37,4.67-32.2,19.84-39.76,32.03-5.29,8.53-23.04,10.22-28.86,10.13h0c-1.32,0-2.6.52-3.52,1.42-.93.92-1.47,2.2-1.47,3.52v33.75c0,2.49,1.87,4.6,4.34,4.9,5.42.66,20.7,3.01,26.25,5.92,8.19,4.3,19.53,16.65,31.13,33.89,10,14.87,16.55,28.02,16.46,31.1-.28,1.44.09,2.91,1.01,4.04.94,1.16,2.34,1.83,3.83,1.83h21.71c1.35,0,2.66-.56,3.59-1.54.93-.98,1.42-2.32,1.34-3.65,0-.07-.23-6.7,3.01-12.6,1.31-2.39.43-5.39-1.95-6.71ZM517.97,450.82h0Z"/>
    <path class="cls-1" d="M469.06,482.91c-4.87,0-8.84,3.97-8.84,8.84s3.97,8.84,8.84,8.84,8.84-3.97,8.84-8.84-3.97-8.84-8.84-8.84Z"/>
  </g>
</svg>